
<global>
amp_veltrack=0
ampeg_attack=0.01
ampeg_release=0.85
loop_mode=loop_continuous
</global>

<group>
group_label=PP
xf_cccurve=gain
xfin_hicc1=63
xfout_hicc1=127
xfout_locc1=64

<region>
hikey=B4
hivel=127
lokey=A#4
loop_end=281221
loop_mode=loop_continuous
loop_start=95032
loop_xfade=35337
lovel=1
pitch_keycenter=A#4
sample=Sopranos_Ooh_marcato_PP_A#4.opus
tune=-4
</region>

<region>
hikey=F6
hivel=127
lokey=A#5
loop_end=280257
loop_mode=loop_continuous
loop_start=94706
loop_xfade=35216
lovel=1
pitch_keycenter=A#5
sample=Sopranos_Ooh_marcato_PP_A#5.opus
tune=+14
</region>

<region>
hikey=C#4
hivel=127
lokey=F3
loop_end=281221
loop_mode=loop_continuous
loop_start=95032
loop_xfade=35337
lovel=1
sample=Sopranos_Ooh_marcato_PP_C4.opus
tune=-3
</region>

<region>
hikey=C#5
hivel=127
lokey=C5
loop_end=281221
loop_mode=loop_continuous
loop_start=95032
loop_xfade=35337
lovel=1
pitch_keycenter=C5
sample=Sopranos_Ooh_marcato_PP_C5.opus
tune=+17
</region>

<region>
hikey=D#4
hivel=127
lokey=D4
loop_end=281221
loop_mode=loop_continuous
loop_start=95032
loop_xfade=35337
lovel=1
pitch_keycenter=D4
sample=Sopranos_Ooh_marcato_PP_D4.opus
tune=+14
</region>

<region>
hikey=D#5
hivel=127
lokey=D5
loop_end=281221
loop_mode=loop_continuous
loop_start=95032
loop_xfade=35337
lovel=1
pitch_keycenter=D5
sample=Sopranos_Ooh_marcato_PP_D5.opus
tune=+8
</region>

<region>
hikey=F4
hivel=127
lokey=E4
loop_end=281221
loop_mode=loop_continuous
loop_start=95032
loop_xfade=35337
lovel=1
pitch_keycenter=E4
sample=Sopranos_Ooh_marcato_PP_E4.opus
tune=+11
</region>

<region>
hikey=F5
hivel=127
lokey=E5
loop_end=278731
loop_mode=loop_continuous
loop_start=94190
loop_xfade=35024
lovel=1
pitch_keycenter=E5
sample=Sopranos_Ooh_marcato_PP_E5.opus
tune=+12
</region>

<region>
hikey=G4
hivel=127
lokey=F#4
loop_end=281221
loop_mode=loop_continuous
loop_start=95032
loop_xfade=35337
lovel=1
pitch_keycenter=F#4
sample=Sopranos_Ooh_marcato_PP_F#4.opus
tune=-7
</region>

<region>
hikey=G5
hivel=127
lokey=F#5
loop_end=281052
loop_mode=loop_continuous
loop_start=94975
loop_xfade=35316
lovel=1
pitch_keycenter=F#5
sample=Sopranos_Ooh_marcato_PP_F#5.opus
tune=+12
</region>

<region>
hikey=A4
hivel=127
lokey=G#4
loop_end=281221
loop_mode=loop_continuous
loop_start=95032
loop_xfade=35337
lovel=1
pitch_keycenter=G#4
sample=Sopranos_Ooh_marcato_PP_G#4.opus
tune=-2
</region>

<region>
hikey=A5
hivel=127
lokey=G#5
loop_end=278179
loop_mode=loop_continuous
loop_start=94004
loop_xfade=34955
lovel=1
pitch_keycenter=G#5
sample=Sopranos_Ooh_marcato_PP_G#5.opus
tune=+11
</region>
</group>

<group>
group_label=FF
xf_cccurve=gain
xfin_hicc1=127
xfin_locc1=64
xfout_hicc1=127
xfout_locc1=127

<region>
hikey=B4
hivel=127
lokey=A#4
loop_end=278088
loop_mode=loop_continuous
loop_start=93973
loop_xfade=34943
lovel=1
pitch_keycenter=A#4
sample=Sopranos_Ooh_marcato_FF_A#4.opus
tune=+10
</region>

<region>
hikey=F6
hivel=127
lokey=A#5
loop_end=280213
loop_mode=loop_continuous
loop_start=94691
loop_xfade=35210
lovel=1
pitch_keycenter=A#5
sample=Sopranos_Ooh_marcato_FF_A#5.opus
tune=+18
</region>

<region>
hikey=C#4
hivel=127
lokey=F3
loop_end=281221
loop_mode=loop_continuous
loop_start=95032
loop_xfade=35337
lovel=1
sample=Sopranos_Ooh_marcato_FF_C4.opus
tune=+2
</region>

<region>
hikey=C#5
hivel=127
lokey=C5
loop_end=275794
loop_mode=loop_continuous
loop_start=93198
loop_xfade=34655
lovel=1
pitch_keycenter=C5
sample=Sopranos_Ooh_marcato_FF_C5.opus
tune=+3
</region>

<region>
hikey=D#4
hivel=127
lokey=D4
loop_end=281221
loop_mode=loop_continuous
loop_start=95032
loop_xfade=35337
lovel=1
pitch_keycenter=D4
sample=Sopranos_Ooh_marcato_FF_D4.opus
</region>

<region>
hikey=D#5
hivel=127
lokey=D5
loop_end=278221
loop_mode=loop_continuous
loop_start=94018
loop_xfade=34960
lovel=1
pitch_keycenter=D5
sample=Sopranos_Ooh_marcato_FF_D5.opus
tune=+11
</region>

<region>
hikey=F4
hivel=127
lokey=E4
loop_end=281221
loop_mode=loop_continuous
loop_start=95032
loop_xfade=35337
lovel=1
pitch_keycenter=E4
sample=Sopranos_Ooh_marcato_FF_E4.opus
tune=+9
</region>

<region>
hikey=F5
hivel=127
lokey=E5
loop_end=278330
loop_mode=loop_continuous
loop_start=94055
loop_xfade=34974
lovel=1
pitch_keycenter=E5
sample=Sopranos_Ooh_marcato_FF_E5.opus
tune=+20
</region>

<region>
hikey=G4
hivel=127
lokey=F#4
loop_end=281221
loop_mode=loop_continuous
loop_start=95032
loop_xfade=35337
lovel=1
pitch_keycenter=F#4
sample=Sopranos_Ooh_marcato_FF_F#4.opus
tune=+8
</region>

<region>
hikey=G5
hivel=127
lokey=F#5
loop_end=276875
loop_mode=loop_continuous
loop_start=93563
loop_xfade=34791
lovel=1
pitch_keycenter=F#5
sample=Sopranos_Ooh_marcato_FF_F#5.opus
tune=+6
</region>

<region>
hikey=A4
hivel=127
lokey=G#4
loop_end=281221
loop_mode=loop_continuous
loop_start=95032
loop_xfade=35337
lovel=1
pitch_keycenter=G#4
sample=Sopranos_Ooh_marcato_FF_G#4.opus
tune=-7
</region>

<region>
hikey=A5
hivel=127
lokey=G#5
loop_end=280926
loop_mode=loop_continuous
loop_start=94932
loop_xfade=35300
lovel=1
pitch_keycenter=G#5
sample=Sopranos_Ooh_marcato_FF_G#5.opus
tune=+18
</region>
</group>